<?xml version="1.0" encoding="utf-8"?>
<!-- Generator: Adobe Illustrator 16.0.0, SVG Export Plug-In . SVG Version: 6.00 Build 0)  -->
<!DOCTYPE svg PUBLIC "-//W3C//DTD SVG 1.1//EN" "http://www.w3.org/Graphics/SVG/1.1/DTD/svg11.dtd">
<svg version="1.1" xmlns="http://www.w3.org/2000/svg" xmlns:xlink="http://www.w3.org/1999/xlink" x="0px" y="0px" width="180px"
	 height="180px" viewBox="0 0 180 180" enable-background="new 0 0 180 180" xml:space="preserve">
<g id="back">
	<path fill="none" stroke="#FC7032" stroke-miterlimit="10" d="M29.806,41.915c3.907-3.796,7.829-7.578,11.767-11.342"/>
	<path fill="none" stroke="#FC7032" stroke-miterlimit="10" d="M29.851,62.336C40.664,51.474,51.49,40.623,62.344,29.801"/>
	<path fill="none" stroke="#FC7032" stroke-miterlimit="10" d="M30.455,51.692c7.223-7.243,14.453-14.477,21.697-21.699"/>
	<path fill="none" stroke="#FC7032" stroke-miterlimit="10" d="M30.53,70.828c13.542-13.566,27.185-27.032,41.032-40.287"/>
	<path fill="none" stroke="#FC7032" stroke-miterlimit="10" d="M62.553,49.849c6.664-6.72,13.313-13.453,19.945-20.205"/>
	<path fill="none" stroke="#FC7032" stroke-miterlimit="10" d="M29.788,82.696c6.536-6.521,13.064-13.05,19.583-19.59"/>
	<path fill="none" stroke="#FC7032" stroke-miterlimit="10" d="M71.983,50.16c6.714-6.73,13.436-13.454,20.168-20.167"/>
	<path fill="none" stroke="#FC7032" stroke-miterlimit="10" d="M29.788,92.571c6.703-6.743,13.404-13.487,20.107-20.228"/>
	<path fill="none" stroke="#FC7032" stroke-miterlimit="10" d="M81.716,50.429c6.867-6.885,13.742-13.762,20.628-20.627"/>
	<path fill="none" stroke="#FC7032" stroke-miterlimit="10" d="M30.281,102.132c6.368-6.401,12.733-12.806,19.099-19.21"/>
	<path fill="none" stroke="#FC7032" stroke-miterlimit="10" d="M92.073,50.069c6.556-6.571,13.119-13.136,19.692-19.689"/>
	<path fill="none" stroke="#FC7032" stroke-miterlimit="10" d="M30.205,112.253c6.551-6.576,13.097-13.158,19.641-19.741"/>
	<path fill="none" stroke="#FC7032" stroke-miterlimit="10" d="M101.408,50.116c6.68-6.557,13.398-13.076,20.165-19.543"/>
	<path fill="none" stroke="#FC7032" stroke-miterlimit="10" d="M30.448,121.538c6.458-6.562,12.911-13.129,19.37-19.691"/>
	<path fill="none" stroke="#FC7032" stroke-miterlimit="10" d="M113.475,50.52c6.501-6.655,12.962-13.349,19.37-20.094"/>
	<path fill="none" stroke="#FC7032" stroke-miterlimit="10" d="M30.67,133.043c6.068-6.017,12.146-12.023,18.227-18.027"/>
	<path fill="none" stroke="#FC7032" stroke-miterlimit="10" d="M122.241,50.268c6.737-6.617,13.533-13.175,20.409-19.647"/>
	<path fill="none" stroke="#FC7032" stroke-miterlimit="10" d="M30.1,143.221c6.533-6.416,13.012-12.887,19.458-19.39"/>
	<path fill="none" stroke="#FC7032" stroke-miterlimit="10" d="M129.655,52.952c6.461-6.402,12.971-12.755,19.548-19.037"/>
	<path fill="none" stroke="#FC7032" stroke-miterlimit="10" d="M34.361,149.705c6.667-6.591,13.28-13.235,19.862-19.911"/>
	<path fill="none" stroke="#FC7032" stroke-miterlimit="10" d="M130.557,72.371c6.292-6.274,12.618-12.513,18.997-18.698"/>
	<path fill="none" stroke="#FC7032" stroke-miterlimit="10" d="M54.159,149.652c6.299-6.266,12.562-12.569,18.804-18.891"/>
	<path fill="none" stroke="#FC7032" stroke-miterlimit="10" d="M130.033,62.811c6.464-6.423,12.966-12.809,19.522-19.139"/>
	<path fill="none" stroke="#FC7032" stroke-miterlimit="10" d="M44.523,149.279c6.202-6.167,12.37-12.367,18.518-18.587"/>
	<path fill="none" stroke="#FC7032" stroke-miterlimit="10" d="M130.523,81.982c6.314-6.193,12.682-12.331,19.125-18.391"/>
	<path fill="none" stroke="#FC7032" stroke-miterlimit="10" d="M63.104,150.217c6.375-6.452,12.722-12.933,19.064-19.418"/>
	<path fill="none" stroke="#FC7032" stroke-miterlimit="10" d="M130.331,92.791c6.575-6.547,13.155-13.09,19.74-19.628"/>
	<path fill="none" stroke="#FC7032" stroke-miterlimit="10" d="M72.758,150.37c6.546-6.576,13.098-13.147,19.655-19.713"/>
	<path fill="none" stroke="#FC7032" stroke-miterlimit="10" d="M130.351,102.066c6.263-6.229,12.585-12.398,18.999-18.472"/>
	<path fill="none" stroke="#FC7032" stroke-miterlimit="10" d="M83.216,150.057c6.35-6.461,12.667-12.955,18.991-19.442"/>
	<path fill="none" stroke="#FC7032" stroke-miterlimit="10" d="M129.616,113.502c6.754-6.721,13.518-13.433,20.289-20.136"/>
	<path fill="none" stroke="#FC7032" stroke-miterlimit="10" d="M93.128,149.977c6.231-6.258,12.47-12.509,18.716-18.751"/>
	<path fill="none" stroke="#FC7032" stroke-miterlimit="10" d="M129.984,122.594c6.392-6.469,12.899-12.827,19.633-18.941"/>
	<path fill="none" stroke="#FC7032" stroke-miterlimit="10" d="M103.639,149.885c6.014-6.22,11.971-12.494,17.98-18.717"/>
	<path fill="none" stroke="#FC7032" stroke-miterlimit="10" d="M112.689,150.391c12.314-12.355,24.68-24.66,37.1-36.909"/>
	<path fill="none" stroke="#FC7032" stroke-miterlimit="10" d="M124.135,149.682c8.442-8.43,16.785-16.959,25.032-25.579"/>
	<path fill="none" stroke="#FC7032" stroke-miterlimit="10" d="M133.239,149.715c5.512-5.688,11.101-11.308,16.958-16.642"/>
	<path fill="none" stroke="#FC7032" stroke-miterlimit="10" d="M143.648,149.486c2.138-2.104,4.281-4.203,6.431-6.295"/>
</g>
<g id="tavr">
	
		<polyline fill="none" stroke="#363636" stroke-width="3" stroke-linecap="round" stroke-linejoin="round" stroke-miterlimit="10" points="
		130,130.5 49.5,130.5 49.5,49.5 130.5,49.5 130.212,130.417 	"/>
	
		<polyline fill="none" stroke="#363636" stroke-width="3" stroke-linecap="round" stroke-linejoin="round" stroke-miterlimit="10" points="
		149.5,131 149.5,30.5 30.5,30.5 30.5,49.5 30.5,130.5 30.5,149.5 149.5,149.5 149.5,131 	"/>
	<g>
		<g>
			<line fill="none" stroke="#363636" stroke-miterlimit="10" x1="165" y1="90.5" x2="157" y2="90.5"/>
			<g>
				<polygon points="151.438,90.5 158.899,87.451 157.129,90.5 158.899,93.548 				"/>
			</g>
		</g>
	</g>
	<text transform="matrix(1 0 0 1 169.1079 95.25)" font-family="'Tahoma'" font-size="18">s</text>
	
		<line fill="none" stroke="#363636" stroke-miterlimit="10" stroke-dasharray="3,1,3,1,3,1" x1="131" y1="90.5" x2="149" y2="90.5"/>
	<line fill="none" stroke="#363636" stroke-miterlimit="10" x1="29.5" y1="178" x2="29.5" y2="153"/>
	<line fill="none" stroke="#363636" stroke-miterlimit="10" x1="150.5" y1="178" x2="150.5" y2="153"/>
	<g>
		<g>
			<line fill="none" stroke="#363636" stroke-miterlimit="10" x1="36" y1="165.5" x2="81" y2="165.5"/>
			<g>
				<polygon points="30.25,165.5 37.712,168.549 35.941,165.5 37.712,162.452 				"/>
			</g>
		</g>
	</g>
	<g>
		<g>
			<line fill="none" stroke="#363636" stroke-miterlimit="10" x1="99" y1="165.5" x2="144" y2="165.5"/>
			<g>
				<polygon points="149.75,165.5 142.288,168.549 144.059,165.5 142.288,162.452 				"/>
			</g>
		</g>
	</g>
	<text transform="matrix(1 0 0 1 85.2759 170.709)" font-family="'Tahoma'" font-size="18">a</text>
	<g>
		<g>
			<line fill="none" stroke="#363636" stroke-miterlimit="10" x1="115" y1="90.5" x2="123" y2="90.5"/>
			<g>
				<polygon points="128.75,90.5 121.288,93.549 123.059,90.5 121.288,87.452 				"/>
			</g>
		</g>
	</g>
</g>
</svg>